<svg xmlns="http://www.w3.org/2000/svg" viewBox="0 0 59.528 59.528"><defs><style>.a{fill:none;}.b{fill:#fff;}.c{fill:#57c9e8;}.d{fill:#a1dcee;}.e{fill:#c7e9f6;}</style></defs><title>chillIcon</title><rect class="a" width="59.528" height="59.528"/><path class="b" d="M50.571,14.371,32.688,4.047a5.852,5.852,0,0,0-5.85,0L8.955,14.372A5.87,5.87,0,0,0,6.03,19.44V40.087a5.868,5.868,0,0,0,2.927,5.069L26.835,55.478a5.848,5.848,0,0,0,5.855,0L50.569,45.157a5.869,5.869,0,0,0,2.929-5.07V19.44A5.874,5.874,0,0,0,50.571,14.371Z"/><path class="c" d="M49.4,16.4,31.519,6.075a3.513,3.513,0,0,0-3.511,0L10.126,16.4A3.524,3.524,0,0,0,8.371,19.44V40.087a3.519,3.519,0,0,0,1.756,3.041l17.88,10.323a3.506,3.506,0,0,0,3.512,0L49.4,43.129a3.521,3.521,0,0,0,1.757-3.042V19.44A3.526,3.526,0,0,0,49.4,16.4Zm-.585,23.689A1.172,1.172,0,0,1,48.23,41.1L30.349,51.424a1.17,1.17,0,0,1-1.17,0L11.3,41.1a1.172,1.172,0,0,1-.586-1.014V19.44a1.172,1.172,0,0,1,.586-1.014L29.179,8.1a1.17,1.17,0,0,1,1.17,0L48.23,18.426a1.172,1.172,0,0,1,.586,1.014Z"/><path class="d" d="M30.935,37.3V30.439l2.309-1.333,3.628-2.1,4.657,1.248A1.17,1.17,0,1,0,42.135,26l-2.4-.642,3.171-1.831A1.17,1.17,0,0,0,41.739,21.5l-3.17,1.83.642-2.395a1.171,1.171,0,0,0-2.262-.606L35.7,24.984l-3.628,2.094-2.31,1.334-2.31-1.334-3.628-2.094-1.247-4.657a1.171,1.171,0,0,0-2.262.606l.642,2.395-3.17-1.83a1.17,1.17,0,0,0-1.171,2.027l3.17,1.831L17.393,26a1.17,1.17,0,0,0,.3,2.3,1.187,1.187,0,0,0,.3-.04l4.657-1.248,3.628,2.1,2.309,1.333V37.3l-3.408,3.408A1.17,1.17,0,1,0,26.84,42.36l1.753-1.753v3.66a1.171,1.171,0,1,0,2.342,0v-3.66l1.753,1.753a1.17,1.17,0,0,0,1.655-1.655Z"/><path class="e" d="M34.343,17.151a1.17,1.17,0,0,0-1.655,0L30.935,18.9v-3.66a1.171,1.171,0,1,0-2.342,0V18.9l-1.754-1.753a1.17,1.17,0,1,0-1.655,1.655l3.409,3.409v3.069a1.171,1.171,0,0,0,2.342,0v-3.07l3.408-3.408A1.17,1.17,0,0,0,34.343,17.151Z"/><path class="e" d="M21.145,40.028a1.172,1.172,0,0,1-.828-1.434l.642-2.4-3.17,1.831A1.171,1.171,0,0,1,16.618,36l3.17-1.83-2.395-.643A1.17,1.17,0,1,1,18,31.268l4.656,1.248,2.658-1.534a1.17,1.17,0,0,1,1.171,2.027l-2.658,1.535L22.578,39.2A1.17,1.17,0,0,1,21.145,40.028Z"/><path class="e" d="M42.962,32.1a1.169,1.169,0,0,1-.828,1.433l-2.4.642L42.91,36a1.17,1.17,0,1,1-1.171,2.027l-3.17-1.83.642,2.4a1.171,1.171,0,0,1-2.262.605L35.7,34.544l-2.658-1.535a1.17,1.17,0,1,1,1.171-2.027l2.658,1.534,4.656-1.247A1.169,1.169,0,0,1,42.962,32.1Z"/></svg>